<?xml version="1.0" standalone="no"?>
<!DOCTYPE svg PUBLIC "-//W3C//DTD SVG 20010904//EN"
 "http://www.w3.org/TR/2001/REC-SVG-20010904/DTD/svg10.dtd">
<svg version="1.0" xmlns="http://www.w3.org/2000/svg"
 width="300.000000pt" height="300.000000pt" viewBox="0 0 300.000000 300.000000"
 preserveAspectRatio="xMidYMid meet">
<metadata>
Created by potrace 1.10, written by Peter Selinger 2001-2011
</metadata>
<g transform="translate(0.000000,300.000000) scale(0.100000,-0.100000)"
fill="#000000" stroke="none">
<path d="M1350 2860 c-47 -4 -107 -16 -135 -25 -27 -10 -58 -19 -67 -20 -28
-2 -138 -58 -138 -69 0 -11 -57 -49 -74 -50 -35 -3 -100 -146 -74 -162 5 -3 2
-17 -7 -31 -23 -34 -26 -62 -13 -87 15 -26 12 -45 -14 -119 -19 -53 -20 -66
-10 -150 6 -51 13 -101 15 -112 3 -11 8 -33 12 -50 4 -16 16 -61 27 -99 22
-76 36 -278 16 -239 -6 12 -17 24 -24 27 -24 9 -15 -21 16 -54 22 -24 34 -51
46 -104 67 -317 100 -379 274 -527 93 -79 154 -107 245 -115 44 -3 82 -7 85
-7 14 -3 90 16 125 30 56 24 108 65 192 151 85 88 153 209 177 317 8 39 26
120 40 182 16 71 25 150 27 220 3 118 11 169 37 223 14 28 17 63 16 180 -1
199 -9 261 -43 326 -16 29 -32 71 -36 93 -7 44 -67 121 -93 121 -9 0 -32 15
-52 34 -25 24 -53 39 -99 50 -35 9 -77 23 -95 30 -46 21 -181 46 -240 45 -28
-1 -89 -5 -136 -9z m285 -54 c180 -45 223 -63 299 -120 70 -53 77 -61 92 -114
9 -31 25 -73 36 -92 21 -36 34 -108 45 -236 5 -67 4 -72 -16 -79 -12 -3 -18
-11 -15 -17 4 -6 10 -6 17 1 20 20 25 12 24 -39 0 -28 -4 -45 -8 -39 -8 13
-19 -13 -20 -49 -1 -26 -1 -25 -18 9 -9 20 -23 44 -30 53 -7 9 -10 16 -7 16 4
0 4 5 0 11 -10 17 -24 -12 -14 -31 20 -38 44 -221 44 -335 0 -102 -4 -133 -27
-205 -15 -47 -29 -93 -32 -104 -2 -10 -12 -27 -21 -38 -13 -13 -15 -21 -7 -29
16 -16 -7 -87 -41 -131 -14 -19 -23 -38 -18 -42 4 -4 1 -6 -7 -4 -9 2 -17 -10
-23 -30 -5 -18 -13 -30 -18 -27 -6 4 -10 -1 -10 -10 0 -10 -5 -13 -12 -9 -7 5
-10 2 -6 -7 2 -8 -4 -22 -14 -31 -17 -17 -18 -17 -18 2 0 11 -5 20 -11 20 -6
0 -9 -7 -6 -15 4 -8 1 -25 -6 -37 -26 -50 -28 -51 -50 -31 -19 15 -20 16 -8 1
11 -15 10 -20 -3 -33 -9 -9 -20 -14 -24 -11 -5 3 -15 -5 -22 -18 -7 -15 -24
-26 -44 -29 -17 -3 -40 -9 -50 -13 -15 -6 -18 -4 -13 9 4 11 2 14 -8 11 -8 -3
-14 -9 -13 -12 2 -19 -4 -23 -17 -12 -10 9 -15 9 -15 1 0 -22 -40 -11 -50 14
-9 25 -30 35 -30 14 0 -5 5 -7 10 -4 6 3 10 0 10 -8 0 -10 -10 -14 -32 -12
-45 2 -88 15 -88 27 0 5 -5 6 -10 3 -6 -3 -16 0 -24 7 -8 7 -26 22 -40 32 -14
10 -26 24 -26 31 0 7 -7 16 -15 19 -13 5 -14 10 -5 28 10 21 10 21 -3 6 -8
-10 -19 -18 -26 -18 -16 0 -14 21 5 34 13 10 13 12 -5 13 -12 1 -21 -4 -21
-12 0 -8 -4 -16 -10 -20 -5 -3 -8 7 -5 25 2 21 -1 30 -10 30 -9 0 -12 -8 -10
-20 2 -12 0 -18 -6 -15 -5 4 -7 11 -4 16 4 5 1 9 -5 9 -6 0 -8 5 -5 10 3 6 -1
13 -9 16 -19 7 -21 40 -3 48 8 3 6 9 -8 21 -20 15 -19 16 3 21 24 7 26 12 12
34 -7 11 -10 12 -10 2 0 -7 -7 -20 -15 -29 -12 -12 -13 -18 -4 -29 9 -11 9
-18 1 -26 -9 -9 -12 -9 -12 1 0 8 -7 19 -16 26 -9 6 -17 20 -18 31 -3 22 -15
72 -23 94 -4 8 -7 18 -8 23 -2 4 -3 8 -5 10 -1 1 -4 15 -6 31 -3 16 -9 37 -15
47 -5 10 -20 64 -34 121 -39 162 -30 358 21 462 17 34 22 52 14 60 -7 7 -10 3
-10 -12 0 -27 -28 -41 -41 -21 -7 12 -9 11 -9 -1 0 -9 6 -22 13 -29 6 -7 8
-12 2 -11 -5 2 -16 2 -24 1 -11 -1 -11 -4 0 -17 12 -14 11 -16 -6 -12 -11 2
-19 10 -18 16 2 7 -2 12 -7 12 -6 0 -8 11 -6 25 3 13 1 27 -4 30 -5 3 -6 21
-4 41 2 19 0 33 -4 30 -12 -7 -6 108 8 164 6 25 13 77 16 115 3 39 9 84 14
100 5 17 11 49 12 72 2 22 6 39 10 37 4 -3 10 1 15 9 4 7 32 30 61 51 28 21
52 41 52 46 0 8 185 70 208 70 7 0 10 5 7 10 -4 7 6 9 27 7 18 -2 56 -1 83 4
68 10 188 4 260 -15z"/>
<path d="M1757 2354 c-1 -2 -18 -5 -37 -7 -61 -8 -89 -19 -95 -37 -3 -10 -35
-37 -70 -60 -54 -35 -68 -40 -80 -30 -17 14 -31 7 -20 -10 4 -7 18 -10 31 -7
13 2 24 0 24 -4 0 -16 -63 -14 -96 2 -11 6 -25 24 -31 40 -6 16 -17 29 -24 29
-10 0 -10 -3 -1 -12 7 -7 12 -20 12 -30 0 -10 9 -23 20 -30 11 -7 20 -16 20
-20 0 -15 -38 -8 -44 7 -4 11 -13 14 -31 9 -19 -5 -25 -2 -25 11 0 10 -5 14
-12 11 -7 -3 -21 -9 -30 -12 -26 -9 -29 -32 -5 -40 12 -5 46 -7 75 -5 31 2 52
-1 52 -7 0 -15 63 -3 107 19 20 10 44 32 54 49 10 16 27 30 36 30 10 0 34 14
53 30 19 16 44 30 55 31 11 1 44 2 73 4 36 1 59 8 70 20 19 19 23 19 -53 2
-11 -2 -14 -2 -7 0 17 6 15 20 -3 20 -8 0 -16 -2 -18 -3z"/>
<path d="M1861 2331 c-14 -4 -26 -12 -28 -18 -3 -9 3 -9 26 0 26 10 33 9 44
-6 11 -16 17 -16 42 -7 l30 12 -45 14 c-25 7 -45 13 -45 13 0 -1 -11 -4 -24
-8z"/>
<path d="M1040 2234 c0 -4 8 -13 18 -21 9 -8 11 -12 5 -8 -7 3 -13 2 -13 -4 0
-15 18 -23 25 -10 4 6 19 8 34 5 19 -5 22 -4 11 4 -12 8 -11 10 8 10 13 0 21
-4 17 -9 -3 -5 8 -19 25 -31 37 -26 88 -42 95 -29 7 11 -42 33 -67 30 -15 -2
-34 20 -37 44 -2 17 -51 26 -51 9 0 -18 -11 -18 -36 1 -20 15 -34 19 -34 9z"/>
<path d="M1574 2183 c15 -4 16 -7 5 -13 -11 -7 -9 -10 6 -16 11 -5 20 -3 23 4
2 7 11 12 20 12 27 0 9 7 -33 13 -22 3 -31 3 -21 0z"/>
<path d="M1718 2002 c-50 -3 -60 -7 -78 -31 l-20 -29 24 -4 c33 -7 57 8 36 22
-8 5 -10 10 -5 11 6 0 18 2 28 4 9 2 17 -1 17 -6 0 -5 -4 -9 -10 -9 -5 0 -10
-5 -10 -10 0 -7 35 -8 103 -4 l102 6 39 -31 c46 -36 63 -32 39 11 -22 38 -55
60 -85 57 -13 -1 -30 1 -38 4 -24 9 -80 12 -142 9z"/>
<path d="M1178 1993 c-10 -3 -18 -8 -18 -12 0 -4 -9 -7 -19 -7 -11 0 -17 4
-15 8 3 4 -2 8 -10 8 -8 0 -18 -4 -21 -10 -3 -5 -14 -10 -23 -10 -9 0 -33 -15
-52 -32 -28 -27 -31 -33 -17 -36 10 -2 39 6 65 18 43 21 57 22 159 17 67 -4
115 -2 118 3 9 15 35 12 35 -4 0 -18 40 -28 57 -15 6 6 17 8 22 5 5 -4 13 -2
16 4 8 12 -62 43 -81 36 -7 -3 -15 0 -17 7 -3 9 -8 9 -20 -1 -13 -11 -17 -10
-25 3 -6 12 -26 18 -73 19 -35 2 -72 1 -81 -1z"/>
<path d="M1537 1956 c-3 -7 4 -18 14 -24 16 -10 19 -9 19 7 0 22 -26 36 -33
17z"/>
<path d="M1659 1899 c-23 -19 -23 -20 -2 -10 35 18 37 13 4 -15 -41 -34 -39
-44 7 -44 25 0 33 3 23 9 -8 5 -20 7 -28 4 -7 -3 -13 1 -13 8 0 7 3 9 6 6 4
-3 18 3 32 13 l25 20 18 -30 c23 -36 51 -39 77 -6 18 24 20 24 42 9 l23 -16
-38 -22 c-21 -13 -32 -26 -26 -29 6 -4 11 -2 11 4 0 7 6 10 14 7 8 -3 20 1 26
9 7 8 26 14 42 14 24 0 28 3 19 13 -6 8 -8 17 -5 20 4 3 -8 14 -25 25 -25 15
-47 18 -113 16 -54 -2 -76 0 -63 6 18 8 17 9 -6 9 -15 1 -37 -8 -50 -20z"/>
<path d="M1162 1903 c-18 -3 -30 -8 -27 -13 3 -5 -8 -17 -25 -26 -32 -19 -42
-48 -14 -37 10 3 22 0 28 -8 6 -8 20 -15 31 -17 11 -2 30 -5 42 -7 13 -2 25 1
29 6 3 5 -4 9 -15 9 -29 0 -71 21 -71 36 0 7 8 18 19 23 15 8 20 6 29 -14 19
-41 77 -27 93 22 3 7 15 2 34 -13 17 -14 23 -22 14 -19 -10 4 -20 2 -24 -4 -4
-7 5 -11 24 -11 17 0 31 4 31 10 0 12 -41 50 -54 50 -5 0 -7 3 -4 6 4 3 17 0
30 -6 19 -10 21 -10 10 1 -12 13 -113 20 -180 12z"/>
<path d="M1391 1857 c-1 -10 -8 -25 -16 -34 -23 -22 -10 -29 13 -7 14 14 17
25 11 39 -7 18 -8 18 -8 2z"/>
<path d="M1645 1623 c8 -15 15 -33 15 -40 0 -6 4 -14 9 -18 6 -3 4 13 -2 36
-7 24 -18 44 -25 47 -8 2 -7 -5 3 -25z"/>
<path d="M1373 1543 c-7 -2 -13 -11 -13 -19 0 -8 -4 -14 -10 -14 -5 0 -10 -4
-10 -10 0 -5 7 -10 15 -10 19 0 86 46 78 54 -7 7 -42 7 -60 -1z"/>
<path d="M1533 1543 c-19 -7 -15 -23 5 -23 11 0 29 -9 42 -20 25 -22 55 -26
65 -10 3 6 -3 10 -14 10 -12 0 -21 5 -21 11 0 26 -46 45 -77 32z"/>
<path d="M1380 1432 c0 -12 -3 -12 -15 -2 -12 10 -15 10 -15 0 0 -15 -41 -53
-61 -58 -8 -2 -23 -4 -34 -5 -25 -2 -40 -16 -50 -46 -6 -20 -4 -22 14 -17 12
3 31 9 44 12 12 4 32 15 44 26 12 11 26 17 31 14 13 -8 34 18 24 29 -4 5 -1 5
6 1 7 -5 26 -3 42 4 23 10 33 9 54 -5 21 -14 31 -15 60 -5 25 8 41 8 55 1 11
-6 27 -8 37 -4 11 4 15 3 11 -4 -4 -6 0 -14 9 -17 20 -8 21 -7 24 19 4 36 0
47 -13 42 -7 -3 -18 3 -24 12 -6 9 -22 17 -37 19 -17 1 -25 -2 -21 -9 4 -6 -2
-5 -13 2 -22 14 -41 2 -55 -33 -9 -24 -34 -12 -33 15 1 19 -4 22 -41 23 -32 1
-43 -3 -43 -14z"/>
<path d="M1674 1389 c-4 -6 -1 -15 6 -19 7 -4 9 -13 6 -19 -5 -7 2 -11 16 -11
13 0 31 -9 41 -20 10 -12 22 -18 28 -14 6 3 17 -2 24 -12 8 -11 15 -16 15 -13
0 13 -32 68 -48 80 -16 13 -16 13 -2 -5 14 -18 14 -19 -7 -7 -13 6 -23 15 -23
20 0 14 -49 31 -56 20z"/>
<path d="M1888 1287 c-4 -19 0 -23 24 -25 21 -2 28 2 27 15 0 11 -3 13 -6 6
-7 -18 -23 -16 -23 1 0 25 -17 27 -22 3z"/>
<path d="M1266 1285 c5 -13 445 -11 469 2 10 6 -78 9 -228 9 -166 0 -244 -3
-241 -11z"/>
<path d="M1446 1181 c-4 -6 -13 -11 -21 -11 -23 0 -68 -20 -61 -27 9 -9 89
-12 101 -4 17 11 65 13 65 3 0 -5 16 -12 35 -14 19 -2 35 0 35 4 0 4 9 8 20 8
12 0 20 7 20 16 0 10 -6 14 -14 11 -8 -3 -17 -3 -20 1 -17 16 -151 27 -160 13z"/>
<path d="M1725 1120 c-3 -5 2 -21 11 -35 21 -32 26 -32 14 -1 -5 13 -6 26 -4
29 3 3 1 8 -5 11 -5 4 -12 2 -16 -4z"/>
<path d="M1600 1016 c0 -13 -3 -33 -6 -43 -5 -14 -4 -15 5 -7 15 14 22 62 10
70 -5 3 -9 -6 -9 -20z"/>
<path d="M2129 1851 c15 -12 19 -20 12 -22 -9 -3 -13 -36 -15 -104 -2 -68 -8
-112 -20 -138 -9 -22 -16 -46 -14 -55 8 -41 62 128 74 232 7 61 -11 106 -44
106 -14 0 -12 -4 7 -19z"/>
<path d="M817 1842 c-20 -21 -22 -54 -6 -84 8 -15 8 -19 0 -14 -18 12 -13 -43
13 -124 28 -92 72 -186 89 -193 8 -3 4 13 -10 41 -13 25 -23 50 -23 56 0 6
-11 33 -25 60 -29 57 -32 119 -10 172 15 36 15 35 -25 47 -10 3 -5 10 17 24
18 11 30 23 26 26 -11 12 -29 8 -46 -11z"/>
<path d="M1934 1079 c4 -19 9 -60 13 -91 5 -53 3 -61 -39 -140 -25 -46 -65
-111 -89 -146 -24 -35 -59 -84 -76 -110 -22 -32 -29 -50 -22 -57 7 -7 13 -5
19 5 5 8 10 11 10 6 0 -5 7 -3 15 4 9 7 14 20 13 29 -3 16 20 47 74 102 15 15
24 29 21 32 -7 7 63 115 98 150 16 15 29 38 29 50 0 17 4 14 16 -13 9 -19 21
-46 27 -58 6 -13 27 -32 47 -42 20 -10 42 -30 50 -44 9 -18 16 -23 21 -14 6 9
13 8 28 -6 11 -10 32 -18 45 -18 14 0 31 -7 37 -14 6 -8 20 -14 30 -14 11 0
19 -4 19 -9 0 -5 17 -17 38 -26 134 -63 250 -124 244 -130 -3 -3 2 -3 12 1 11
4 17 3 14 -2 -4 -5 5 -10 19 -11 14 0 29 -6 33 -13 4 -6 10 -11 14 -11 19 3
27 0 21 -8 -3 -5 0 -13 6 -17 8 -5 9 -3 4 6 -6 9 -2 10 16 5 44 -14 109 -47
109 -56 0 -5 4 -8 8 -6 5 1 31 -13 59 -30 66 -43 83 -49 83 -30 0 35 -131 112
-350 205 -52 22 -158 73 -235 113 -77 40 -185 96 -239 124 l-100 50 -33 85
c-44 116 -62 147 -91 166 l-25 16 7 -33z"/>
<path d="M1051 1074 c-1 -17 -8 -37 -17 -45 -20 -16 -69 -114 -78 -155 -9 -41
-35 -64 -125 -109 -41 -20 -138 -73 -215 -117 -78 -45 -212 -118 -299 -164
-152 -81 -298 -172 -312 -195 -4 -6 -2 -16 4 -22 8 -8 19 -5 41 11 16 12 33
22 38 22 5 0 17 9 27 20 10 11 22 20 27 20 5 0 25 12 43 26 19 14 38 23 44 20
5 -3 11 1 15 9 3 8 12 12 21 9 10 -4 13 -2 10 8 -3 9 2 14 14 15 11 1 38 14
61 28 23 15 48 24 56 21 9 -3 12 -1 9 4 -3 6 5 14 19 20 14 5 44 23 67 40 23
16 46 30 51 30 5 0 35 16 66 37 31 20 98 56 147 81 187 92 184 90 215 167 11
29 12 29 26 10 8 -10 14 -15 14 -9 1 5 10 -9 21 -31 44 -84 102 -175 109 -170
10 6 29 -12 66 -60 14 -18 37 -41 50 -50 24 -16 25 -15 16 2 -6 10 -27 36 -48
58 -113 122 -169 231 -179 348 -3 43 -2 84 3 90 5 7 5 23 1 37 -7 24 -7 24 -8
-6z"/>
<path d="M1856 609 c-26 -39 -46 -72 -44 -74 3 -4 76 71 77 78 0 1 5 15 11 31
6 16 9 30 8 32 -2 1 -25 -29 -52 -67z"/>
<path d="M1015 609 c-16 -7 -13 -8 12 -5 27 5 36 0 61 -30 20 -24 32 -32 37
-24 4 7 -2 18 -13 26 -12 8 -28 21 -36 29 -16 17 -32 18 -61 4z"/>
<path d="M1146 602 c-3 -5 1 -13 10 -16 8 -3 13 -10 10 -15 -3 -5 1 -14 9 -21
8 -7 15 -10 15 -6 0 3 15 -3 33 -14 17 -11 37 -20 42 -20 6 1 -3 8 -20 16 -16
9 -44 32 -61 51 -18 20 -34 31 -38 25z"/>
<path d="M1864 549 c-27 -24 -51 -45 -53 -46 -2 -2 -1 -6 2 -9 4 -4 27 12 52
35 53 49 80 52 162 16 32 -14 70 -31 86 -38 15 -7 25 -18 22 -25 -3 -9 3 -12
22 -9 37 5 41 25 6 33 -15 3 -63 22 -106 41 -120 53 -136 54 -193 2z"/>
<path d="M832 548 c-35 -13 -50 -24 -44 -30 6 -6 30 1 67 21 66 35 55 40 -23
9z"/>
<path d="M1174 515 c3 -10 -1 -15 -12 -15 -14 0 -14 -2 -3 -9 17 -11 46 13 36
29 -10 16 -28 12 -21 -5z"/>
<path d="M1275 499 c-4 -5 -13 -8 -21 -5 -12 4 -12 2 -4 -14 6 -11 17 -17 25
-14 13 5 76 -46 141 -114 27 -28 41 -12 19 22 -14 22 -114 113 -142 129 -6 4
-15 2 -18 -4z"/>
<path d="M1693 500 c-70 -16 -174 -133 -145 -162 9 -9 12 -9 12 3 0 28 118
119 155 119 8 0 17 5 21 12 5 8 2 9 -9 5 -10 -3 -17 -2 -17 3 0 6 7 10 15 10
8 0 15 5 15 10 0 11 -2 11 -47 0z"/>
<path d="M1473 389 c-11 -11 -6 -49 6 -49 17 1 33 19 29 35 -4 22 -20 29 -35
14z"/>
<path d="M1494 312 c-13 -8 -24 -71 -14 -77 7 -4 34 74 28 80 -2 2 -8 1 -14
-3z"/>
<path d="M51 215 c0 -16 11 -73 24 -125 17 -67 22 -80 18 -45 -8 71 -41 207
-42 170z"/>
<path d="M2975 200 c4 -6 -8 -51 -26 -100 -32 -91 -33 -114 -4 -90 10 9 12 16
5 20 -6 4 0 35 20 87 25 69 27 82 14 87 -9 3 -12 2 -9 -4z"/>
<path d="M1430 190 c-6 -18 -7 -190 0 -190 9 0 16 32 26 119 5 44 4 62 -4 57
-6 -3 -13 0 -15 6 -3 7 -6 11 -7 8z"/>
<path d="M1501 129 c-16 -46 -14 -89 4 -89 8 0 15 -6 15 -12 0 -9 3 -9 9 1 7
11 10 10 13 -5 4 -18 5 -17 16 3 12 22 11 23 -17 23 -21 0 -32 6 -36 21 -4 12
-2 26 3 31 14 14 52 0 52 -18 0 -9 5 -12 11 -8 8 4 0 17 -22 36 -27 24 -30 31
-19 38 13 8 12 10 -2 10 -9 0 -21 -13 -27 -31z"/>
</g>
</svg>
